<mxfile host="app.diagrams.net" agent="Mozilla/5.0 (Windows NT 10.0; Win64; x64) AppleWebKit/537.36 (KHTML, like Gecko) Chrome/134.0.0.0 Safari/537.36" version="26.2.5">
  <diagram name="Page-1" id="FzB7ItIa9mreEgubFLcC">
    <mxGraphModel dx="1228" dy="661" grid="1" gridSize="10" guides="1" tooltips="1" connect="1" arrows="1" fold="1" page="1" pageScale="1" pageWidth="827" pageHeight="1169" math="0" shadow="0">
      <root>
        <mxCell id="0" />
        <mxCell id="1" parent="0" />
        <mxCell id="IpF2y_4fmel3WClAhzL0-1" value="Utilisateur" style="text;html=1;align=center;verticalAlign=middle;whiteSpace=wrap;rounded=0;" vertex="1" parent="1">
          <mxGeometry x="140" y="50" width="90" height="30" as="geometry" />
        </mxCell>
        <mxCell id="IpF2y_4fmel3WClAhzL0-2" value="UI" style="text;html=1;align=center;verticalAlign=middle;whiteSpace=wrap;rounded=0;" vertex="1" parent="1">
          <mxGeometry x="300" y="50" width="60" height="30" as="geometry" />
        </mxCell>
        <mxCell id="IpF2y_4fmel3WClAhzL0-3" value="Control" style="text;html=1;align=center;verticalAlign=middle;whiteSpace=wrap;rounded=0;" vertex="1" parent="1">
          <mxGeometry x="400" y="50" width="60" height="30" as="geometry" />
        </mxCell>
        <mxCell id="IpF2y_4fmel3WClAhzL0-4" value="BD" style="text;html=1;align=center;verticalAlign=middle;whiteSpace=wrap;rounded=0;" vertex="1" parent="1">
          <mxGeometry x="530" y="50" width="60" height="30" as="geometry" />
        </mxCell>
        <mxCell id="IpF2y_4fmel3WClAhzL0-5" value="" style="endArrow=none;dashed=1;html=1;rounded=0;" edge="1" parent="1">
          <mxGeometry width="50" height="50" relative="1" as="geometry">
            <mxPoint x="180" y="1160" as="sourcePoint" />
            <mxPoint x="180" y="90" as="targetPoint" />
          </mxGeometry>
        </mxCell>
        <mxCell id="IpF2y_4fmel3WClAhzL0-6" value="" style="endArrow=none;dashed=1;html=1;rounded=0;" edge="1" parent="1" source="IpF2y_4fmel3WClAhzL0-10">
          <mxGeometry width="50" height="50" relative="1" as="geometry">
            <mxPoint x="330" y="1160" as="sourcePoint" />
            <mxPoint x="329.5" y="90" as="targetPoint" />
          </mxGeometry>
        </mxCell>
        <mxCell id="IpF2y_4fmel3WClAhzL0-7" value="" style="endArrow=none;dashed=1;html=1;rounded=0;" edge="1" parent="1" source="IpF2y_4fmel3WClAhzL0-16">
          <mxGeometry width="50" height="50" relative="1" as="geometry">
            <mxPoint x="430" y="1160" as="sourcePoint" />
            <mxPoint x="429.5" y="90" as="targetPoint" />
          </mxGeometry>
        </mxCell>
        <mxCell id="IpF2y_4fmel3WClAhzL0-8" value="" style="endArrow=none;dashed=1;html=1;rounded=0;" edge="1" parent="1" source="IpF2y_4fmel3WClAhzL0-23">
          <mxGeometry width="50" height="50" relative="1" as="geometry">
            <mxPoint x="560" y="1160" as="sourcePoint" />
            <mxPoint x="559.5" y="90" as="targetPoint" />
          </mxGeometry>
        </mxCell>
        <mxCell id="IpF2y_4fmel3WClAhzL0-12" style="edgeStyle=orthogonalEdgeStyle;rounded=0;orthogonalLoop=1;jettySize=auto;html=1;exitX=1;exitY=0.25;exitDx=0;exitDy=0;entryX=0;entryY=0.25;entryDx=0;entryDy=0;" edge="1" parent="1" source="IpF2y_4fmel3WClAhzL0-9" target="IpF2y_4fmel3WClAhzL0-10">
          <mxGeometry relative="1" as="geometry" />
        </mxCell>
        <mxCell id="IpF2y_4fmel3WClAhzL0-9" value="" style="rounded=0;whiteSpace=wrap;html=1;" vertex="1" parent="1">
          <mxGeometry x="170" y="110" width="20" height="270" as="geometry" />
        </mxCell>
        <mxCell id="IpF2y_4fmel3WClAhzL0-11" value="" style="endArrow=none;dashed=1;html=1;rounded=0;" edge="1" parent="1" source="IpF2y_4fmel3WClAhzL0-14" target="IpF2y_4fmel3WClAhzL0-10">
          <mxGeometry width="50" height="50" relative="1" as="geometry">
            <mxPoint x="330" y="1160" as="sourcePoint" />
            <mxPoint x="329.5" y="90" as="targetPoint" />
          </mxGeometry>
        </mxCell>
        <mxCell id="IpF2y_4fmel3WClAhzL0-10" value="" style="rounded=0;whiteSpace=wrap;html=1;" vertex="1" parent="1">
          <mxGeometry x="320" y="110" width="20" height="90" as="geometry" />
        </mxCell>
        <mxCell id="IpF2y_4fmel3WClAhzL0-13" value="GÃ©rer utilisateurs" style="text;html=1;align=center;verticalAlign=middle;whiteSpace=wrap;rounded=0;" vertex="1" parent="1">
          <mxGeometry x="190" y="100" width="120" height="30" as="geometry" />
        </mxCell>
        <mxCell id="IpF2y_4fmel3WClAhzL0-15" value="" style="endArrow=none;dashed=1;html=1;rounded=0;entryX=0.5;entryY=0;entryDx=0;entryDy=0;" edge="1" parent="1" source="IpF2y_4fmel3WClAhzL0-38" target="IpF2y_4fmel3WClAhzL0-14">
          <mxGeometry width="50" height="50" relative="1" as="geometry">
            <mxPoint x="330" y="1640" as="sourcePoint" />
            <mxPoint x="320" y="850" as="targetPoint" />
          </mxGeometry>
        </mxCell>
        <mxCell id="IpF2y_4fmel3WClAhzL0-18" style="edgeStyle=orthogonalEdgeStyle;rounded=0;orthogonalLoop=1;jettySize=auto;html=1;exitX=1;exitY=0.25;exitDx=0;exitDy=0;entryX=0;entryY=0.25;entryDx=0;entryDy=0;" edge="1" parent="1" source="IpF2y_4fmel3WClAhzL0-14" target="IpF2y_4fmel3WClAhzL0-16">
          <mxGeometry relative="1" as="geometry" />
        </mxCell>
        <mxCell id="IpF2y_4fmel3WClAhzL0-14" value="" style="rounded=0;whiteSpace=wrap;html=1;" vertex="1" parent="1">
          <mxGeometry x="320" y="210" width="20" height="160" as="geometry" />
        </mxCell>
        <mxCell id="IpF2y_4fmel3WClAhzL0-17" value="" style="endArrow=none;dashed=1;html=1;rounded=0;" edge="1" parent="1" source="IpF2y_4fmel3WClAhzL0-19" target="IpF2y_4fmel3WClAhzL0-16">
          <mxGeometry width="50" height="50" relative="1" as="geometry">
            <mxPoint x="430" y="1160" as="sourcePoint" />
            <mxPoint x="429.5" y="90" as="targetPoint" />
          </mxGeometry>
        </mxCell>
        <mxCell id="IpF2y_4fmel3WClAhzL0-16" value="" style="rounded=0;whiteSpace=wrap;html=1;" vertex="1" parent="1">
          <mxGeometry x="420" y="210" width="20" height="20" as="geometry" />
        </mxCell>
        <mxCell id="IpF2y_4fmel3WClAhzL0-20" value="" style="endArrow=none;dashed=1;html=1;rounded=0;" edge="1" parent="1" source="IpF2y_4fmel3WClAhzL0-29" target="IpF2y_4fmel3WClAhzL0-19">
          <mxGeometry width="50" height="50" relative="1" as="geometry">
            <mxPoint x="430" y="1160" as="sourcePoint" />
            <mxPoint x="430" y="230" as="targetPoint" />
          </mxGeometry>
        </mxCell>
        <mxCell id="IpF2y_4fmel3WClAhzL0-25" style="edgeStyle=orthogonalEdgeStyle;rounded=0;orthogonalLoop=1;jettySize=auto;html=1;exitX=1;exitY=0.25;exitDx=0;exitDy=0;entryX=0;entryY=0.25;entryDx=0;entryDy=0;" edge="1" parent="1" source="IpF2y_4fmel3WClAhzL0-19" target="IpF2y_4fmel3WClAhzL0-23">
          <mxGeometry relative="1" as="geometry" />
        </mxCell>
        <mxCell id="IpF2y_4fmel3WClAhzL0-19" value="" style="rounded=0;whiteSpace=wrap;html=1;" vertex="1" parent="1">
          <mxGeometry x="420" y="240" width="20" height="90" as="geometry" />
        </mxCell>
        <mxCell id="IpF2y_4fmel3WClAhzL0-21" value="Envoyer commande" style="text;html=1;align=center;verticalAlign=middle;whiteSpace=wrap;rounded=0;" vertex="1" parent="1">
          <mxGeometry x="350" y="180" width="60" height="30" as="geometry" />
        </mxCell>
        <mxCell id="IpF2y_4fmel3WClAhzL0-24" value="" style="endArrow=none;dashed=1;html=1;rounded=0;" edge="1" parent="1" target="IpF2y_4fmel3WClAhzL0-23">
          <mxGeometry width="50" height="50" relative="1" as="geometry">
            <mxPoint x="560" y="1160" as="sourcePoint" />
            <mxPoint x="559.5" y="90" as="targetPoint" />
          </mxGeometry>
        </mxCell>
        <mxCell id="IpF2y_4fmel3WClAhzL0-27" style="edgeStyle=orthogonalEdgeStyle;rounded=0;orthogonalLoop=1;jettySize=auto;html=1;exitX=0;exitY=0.75;exitDx=0;exitDy=0;entryX=1;entryY=0.75;entryDx=0;entryDy=0;endArrow=open;endFill=0;dashed=1;" edge="1" parent="1" source="IpF2y_4fmel3WClAhzL0-23" target="IpF2y_4fmel3WClAhzL0-19">
          <mxGeometry relative="1" as="geometry" />
        </mxCell>
        <mxCell id="IpF2y_4fmel3WClAhzL0-23" value="" style="rounded=0;whiteSpace=wrap;html=1;" vertex="1" parent="1">
          <mxGeometry x="550" y="240" width="20" height="90" as="geometry" />
        </mxCell>
        <mxCell id="IpF2y_4fmel3WClAhzL0-26" value="Demander liste utilisateurs" style="text;html=1;align=center;verticalAlign=middle;whiteSpace=wrap;rounded=0;" vertex="1" parent="1">
          <mxGeometry x="440" y="230" width="100" height="30" as="geometry" />
        </mxCell>
        <mxCell id="IpF2y_4fmel3WClAhzL0-28" value="Envoyer liste utilisateurs" style="text;html=1;align=center;verticalAlign=middle;whiteSpace=wrap;rounded=0;" vertex="1" parent="1">
          <mxGeometry x="440" y="270" width="100" height="30" as="geometry" />
        </mxCell>
        <mxCell id="IpF2y_4fmel3WClAhzL0-30" value="" style="endArrow=none;dashed=1;html=1;rounded=0;" edge="1" parent="1" source="IpF2y_4fmel3WClAhzL0-44" target="IpF2y_4fmel3WClAhzL0-29">
          <mxGeometry width="50" height="50" relative="1" as="geometry">
            <mxPoint x="430" y="1160" as="sourcePoint" />
            <mxPoint x="430" y="330" as="targetPoint" />
          </mxGeometry>
        </mxCell>
        <mxCell id="IpF2y_4fmel3WClAhzL0-29" value="" style="rounded=0;whiteSpace=wrap;html=1;" vertex="1" parent="1">
          <mxGeometry x="420" y="350" width="20" height="20" as="geometry" />
        </mxCell>
        <mxCell id="IpF2y_4fmel3WClAhzL0-31" style="edgeStyle=orthogonalEdgeStyle;rounded=0;orthogonalLoop=1;jettySize=auto;html=1;exitX=0;exitY=0.25;exitDx=0;exitDy=0;entryX=0.9;entryY=0.904;entryDx=0;entryDy=0;entryPerimeter=0;endArrow=open;endFill=0;dashed=1;" edge="1" parent="1" source="IpF2y_4fmel3WClAhzL0-29" target="IpF2y_4fmel3WClAhzL0-14">
          <mxGeometry relative="1" as="geometry" />
        </mxCell>
        <mxCell id="IpF2y_4fmel3WClAhzL0-32" value="Afficher liste utilisateurs" style="text;html=1;align=center;verticalAlign=middle;whiteSpace=wrap;rounded=0;" vertex="1" parent="1">
          <mxGeometry x="346" y="320" width="74" height="30" as="geometry" />
        </mxCell>
        <mxCell id="IpF2y_4fmel3WClAhzL0-33" value="ALT&amp;nbsp;" style="shape=umlFrame;whiteSpace=wrap;html=1;pointerEvents=0;width=56;height=30;" vertex="1" parent="1">
          <mxGeometry x="102" y="415" width="546" height="345" as="geometry" />
        </mxCell>
        <mxCell id="IpF2y_4fmel3WClAhzL0-34" value="[Modifier/Ajouter/Supprimer]" style="text;html=1;align=center;verticalAlign=middle;whiteSpace=wrap;rounded=0;" vertex="1" parent="1">
          <mxGeometry x="160" y="415" width="190" height="30" as="geometry" />
        </mxCell>
        <mxCell id="IpF2y_4fmel3WClAhzL0-35" value="ALT&amp;nbsp;" style="shape=umlFrame;whiteSpace=wrap;html=1;pointerEvents=0;width=56;height=30;" vertex="1" parent="1">
          <mxGeometry x="102" y="780" width="546" height="170" as="geometry" />
        </mxCell>
        <mxCell id="IpF2y_4fmel3WClAhzL0-37" value="[Retour]" style="text;html=1;align=center;verticalAlign=middle;whiteSpace=wrap;rounded=0;" vertex="1" parent="1">
          <mxGeometry x="190" y="780" width="60" height="30" as="geometry" />
        </mxCell>
        <mxCell id="IpF2y_4fmel3WClAhzL0-39" value="" style="endArrow=none;dashed=1;html=1;rounded=0;entryX=0.5;entryY=0;entryDx=0;entryDy=0;" edge="1" parent="1" source="IpF2y_4fmel3WClAhzL0-56" target="IpF2y_4fmel3WClAhzL0-38">
          <mxGeometry width="50" height="50" relative="1" as="geometry">
            <mxPoint x="330" y="1640" as="sourcePoint" />
            <mxPoint x="330" y="210" as="targetPoint" />
          </mxGeometry>
        </mxCell>
        <mxCell id="IpF2y_4fmel3WClAhzL0-41" style="edgeStyle=orthogonalEdgeStyle;rounded=0;orthogonalLoop=1;jettySize=auto;html=1;exitX=1;exitY=0.25;exitDx=0;exitDy=0;entryX=0;entryY=0.25;entryDx=0;entryDy=0;" edge="1" parent="1" source="IpF2y_4fmel3WClAhzL0-38" target="IpF2y_4fmel3WClAhzL0-40">
          <mxGeometry relative="1" as="geometry" />
        </mxCell>
        <mxCell id="IpF2y_4fmel3WClAhzL0-38" value="" style="rounded=0;whiteSpace=wrap;html=1;" vertex="1" parent="1">
          <mxGeometry x="320" y="470" width="20" height="230" as="geometry" />
        </mxCell>
        <mxCell id="IpF2y_4fmel3WClAhzL0-40" value="" style="rounded=0;whiteSpace=wrap;html=1;" vertex="1" parent="1">
          <mxGeometry x="420" y="470" width="20" height="60" as="geometry" />
        </mxCell>
        <mxCell id="IpF2y_4fmel3WClAhzL0-42" value="Envoyer Infos" style="text;html=1;align=center;verticalAlign=middle;whiteSpace=wrap;rounded=0;" vertex="1" parent="1">
          <mxGeometry x="343" y="460" width="80" height="30" as="geometry" />
        </mxCell>
        <mxCell id="IpF2y_4fmel3WClAhzL0-43" style="edgeStyle=orthogonalEdgeStyle;rounded=0;orthogonalLoop=1;jettySize=auto;html=1;exitX=0.5;exitY=1;exitDx=0;exitDy=0;" edge="1" parent="1" source="IpF2y_4fmel3WClAhzL0-40" target="IpF2y_4fmel3WClAhzL0-40">
          <mxGeometry relative="1" as="geometry" />
        </mxCell>
        <mxCell id="IpF2y_4fmel3WClAhzL0-45" value="" style="endArrow=none;dashed=1;html=1;rounded=0;" edge="1" parent="1" source="IpF2y_4fmel3WClAhzL0-52" target="IpF2y_4fmel3WClAhzL0-44">
          <mxGeometry width="50" height="50" relative="1" as="geometry">
            <mxPoint x="430" y="1160" as="sourcePoint" />
            <mxPoint x="430" y="370" as="targetPoint" />
          </mxGeometry>
        </mxCell>
        <mxCell id="IpF2y_4fmel3WClAhzL0-48" style="edgeStyle=orthogonalEdgeStyle;rounded=0;orthogonalLoop=1;jettySize=auto;html=1;exitX=1;exitY=0.25;exitDx=0;exitDy=0;entryX=0;entryY=0.25;entryDx=0;entryDy=0;" edge="1" parent="1" source="IpF2y_4fmel3WClAhzL0-44" target="IpF2y_4fmel3WClAhzL0-47">
          <mxGeometry relative="1" as="geometry" />
        </mxCell>
        <mxCell id="IpF2y_4fmel3WClAhzL0-44" value="" style="rounded=0;whiteSpace=wrap;html=1;" vertex="1" parent="1">
          <mxGeometry x="420" y="540" width="20" height="110" as="geometry" />
        </mxCell>
        <mxCell id="IpF2y_4fmel3WClAhzL0-50" style="edgeStyle=orthogonalEdgeStyle;rounded=0;orthogonalLoop=1;jettySize=auto;html=1;exitX=0;exitY=0.75;exitDx=0;exitDy=0;entryX=1;entryY=0.75;entryDx=0;entryDy=0;dashed=1;endArrow=open;endFill=0;" edge="1" parent="1" source="IpF2y_4fmel3WClAhzL0-47" target="IpF2y_4fmel3WClAhzL0-44">
          <mxGeometry relative="1" as="geometry" />
        </mxCell>
        <mxCell id="IpF2y_4fmel3WClAhzL0-47" value="" style="rounded=0;whiteSpace=wrap;html=1;" vertex="1" parent="1">
          <mxGeometry x="550" y="540" width="20" height="110" as="geometry" />
        </mxCell>
        <mxCell id="IpF2y_4fmel3WClAhzL0-49" value="Mettre Ã  jours information" style="text;html=1;align=center;verticalAlign=middle;whiteSpace=wrap;rounded=0;" vertex="1" parent="1">
          <mxGeometry x="435" y="520" width="110" height="30" as="geometry" />
        </mxCell>
        <mxCell id="IpF2y_4fmel3WClAhzL0-51" value="Retourner infos" style="text;html=1;align=center;verticalAlign=middle;whiteSpace=wrap;rounded=0;" vertex="1" parent="1">
          <mxGeometry x="440" y="590" width="100" height="30" as="geometry" />
        </mxCell>
        <mxCell id="IpF2y_4fmel3WClAhzL0-53" value="" style="endArrow=none;dashed=1;html=1;rounded=0;" edge="1" parent="1" source="IpF2y_4fmel3WClAhzL0-58" target="IpF2y_4fmel3WClAhzL0-52">
          <mxGeometry width="50" height="50" relative="1" as="geometry">
            <mxPoint x="430" y="1160" as="sourcePoint" />
            <mxPoint x="430" y="650" as="targetPoint" />
          </mxGeometry>
        </mxCell>
        <mxCell id="IpF2y_4fmel3WClAhzL0-54" style="edgeStyle=orthogonalEdgeStyle;rounded=0;orthogonalLoop=1;jettySize=auto;html=1;exitX=0;exitY=0.25;exitDx=0;exitDy=0;entryX=1;entryY=0.75;entryDx=0;entryDy=0;endArrow=open;endFill=0;dashed=1;" edge="1" parent="1" source="IpF2y_4fmel3WClAhzL0-52" target="IpF2y_4fmel3WClAhzL0-38">
          <mxGeometry relative="1" as="geometry" />
        </mxCell>
        <mxCell id="IpF2y_4fmel3WClAhzL0-52" value="" style="rounded=0;whiteSpace=wrap;html=1;" vertex="1" parent="1">
          <mxGeometry x="420" y="660" width="20" height="40" as="geometry" />
        </mxCell>
        <mxCell id="IpF2y_4fmel3WClAhzL0-55" value="Afficher informations modifiÃ©" style="text;html=1;align=center;verticalAlign=middle;whiteSpace=wrap;rounded=0;" vertex="1" parent="1">
          <mxGeometry x="350" y="550" width="60" height="110" as="geometry" />
        </mxCell>
        <mxCell id="IpF2y_4fmel3WClAhzL0-57" value="" style="endArrow=none;dashed=1;html=1;rounded=0;entryX=0.5;entryY=0;entryDx=0;entryDy=0;" edge="1" parent="1" target="IpF2y_4fmel3WClAhzL0-56">
          <mxGeometry width="50" height="50" relative="1" as="geometry">
            <mxPoint x="330" y="1640" as="sourcePoint" />
            <mxPoint x="330" y="470" as="targetPoint" />
          </mxGeometry>
        </mxCell>
        <mxCell id="IpF2y_4fmel3WClAhzL0-60" style="edgeStyle=orthogonalEdgeStyle;rounded=0;orthogonalLoop=1;jettySize=auto;html=1;exitX=1;exitY=0.25;exitDx=0;exitDy=0;entryX=0;entryY=0.25;entryDx=0;entryDy=0;" edge="1" parent="1" source="IpF2y_4fmel3WClAhzL0-56" target="IpF2y_4fmel3WClAhzL0-58">
          <mxGeometry relative="1" as="geometry" />
        </mxCell>
        <mxCell id="IpF2y_4fmel3WClAhzL0-56" value="" style="rounded=0;whiteSpace=wrap;html=1;" vertex="1" parent="1">
          <mxGeometry x="320" y="800" width="20" height="110" as="geometry" />
        </mxCell>
        <mxCell id="IpF2y_4fmel3WClAhzL0-59" value="" style="endArrow=none;dashed=1;html=1;rounded=0;" edge="1" parent="1" target="IpF2y_4fmel3WClAhzL0-58">
          <mxGeometry width="50" height="50" relative="1" as="geometry">
            <mxPoint x="430" y="1160" as="sourcePoint" />
            <mxPoint x="430" y="700" as="targetPoint" />
          </mxGeometry>
        </mxCell>
        <mxCell id="IpF2y_4fmel3WClAhzL0-62" style="edgeStyle=orthogonalEdgeStyle;rounded=0;orthogonalLoop=1;jettySize=auto;html=1;exitX=0;exitY=0.75;exitDx=0;exitDy=0;entryX=1;entryY=0.75;entryDx=0;entryDy=0;dashed=1;endArrow=open;endFill=0;" edge="1" parent="1" source="IpF2y_4fmel3WClAhzL0-58" target="IpF2y_4fmel3WClAhzL0-56">
          <mxGeometry relative="1" as="geometry" />
        </mxCell>
        <mxCell id="IpF2y_4fmel3WClAhzL0-58" value="" style="rounded=0;whiteSpace=wrap;html=1;" vertex="1" parent="1">
          <mxGeometry x="420" y="800" width="20" height="110" as="geometry" />
        </mxCell>
        <mxCell id="IpF2y_4fmel3WClAhzL0-61" value="Envoyer commande" style="text;html=1;align=center;verticalAlign=middle;whiteSpace=wrap;rounded=0;" vertex="1" parent="1">
          <mxGeometry x="345" y="790" width="60" height="30" as="geometry" />
        </mxCell>
        <mxCell id="IpF2y_4fmel3WClAhzL0-63" value="Afficher page d&#39;acceuil" style="text;html=1;align=center;verticalAlign=middle;whiteSpace=wrap;rounded=0;" vertex="1" parent="1">
          <mxGeometry x="330" y="850" width="100" height="30" as="geometry" />
        </mxCell>
        <mxCell id="IpF2y_4fmel3WClAhzL0-64" value="ALT&amp;nbsp;" style="shape=umlFrame;whiteSpace=wrap;html=1;pointerEvents=0;width=56;height=30;" vertex="1" parent="1">
          <mxGeometry x="102" y="990" width="548" height="110" as="geometry" />
        </mxCell>
        <mxCell id="IpF2y_4fmel3WClAhzL0-65" value="[Quitter]" style="text;html=1;align=center;verticalAlign=middle;whiteSpace=wrap;rounded=0;" vertex="1" parent="1">
          <mxGeometry x="172" y="990" width="90" height="30" as="geometry" />
        </mxCell>
        <mxCell id="IpF2y_4fmel3WClAhzL0-66" value="" style="shape=umlDestroy;whiteSpace=wrap;html=1;strokeWidth=3;targetShapes=umlLifeline;" vertex="1" parent="1">
          <mxGeometry x="159.5" y="1030" width="30" height="30" as="geometry" />
        </mxCell>
      </root>
    </mxGraphModel>
  </diagram>
</mxfile>
